<?xml version="1.0" encoding="UTF-8"?>
<svg id="Shorthand_Logo" data-name="Shorthand Logo" xmlns="http://www.w3.org/2000/svg" viewBox="0 0 93.77 93.77">
  <defs>
    <style>
      .cls-1 {
        fill: #35383e;
      }

      .cls-2 {
        fill: #e13c17;
      }

      .cls-3 {
        fill: none;
      }
    </style>
  </defs>
  <path class="cls-1" d="M46.88,0C20.99,0,0,20.99,0,46.88s20.99,46.88,46.88,46.88,46.88-20.99,46.88-46.88S72.78,0,46.88,0Z"/>
  <path class="cls-3" d="M71.13,18.48c-.1-.22-.45-.79-.76-1.02-.3-.23-.67-.45-.67-.45-.28-.14-1.59-.87-3.38-1.58-1.33-.53-2.23-.8-3.65-1.19-.63-.17-1.51-.4-2.33-.57-1.98-.41-2.78-.52-4.34-.68-2.43-.25-4.64-.13-6.07,.02-1.6,.17-2.21,.23-3.17,.59-1.19,.44-1.45,.57-2.79,.69-.49,.04-1.55,.13-2.6,0-1.26-.15-1.37-.58-3.02-.65-.97-.04-1.43,.01-2.41-.03-.63-.03-1.26-.05-1.7-.02-.28,.02-.48,.06-.54,.13-.09,.11,.05,.38,.27,.69,.34,.46,.87,1,1.17,1.25,1.33,1.12,2.22,1.6,3.17,2.25,1.47,1.01,2.06,1.44,3.63,3.26,1.37,1.59,1.86,2.28,2.25,3.26,.84,2.09-.12,2.73,.72,5.27,.56,1.7,1.24,3.02,1.98,4.21,.45,.72,1.38,1.7,2.33,2.79,1.28,1.46,1.53,1.75,2.18,2.75,.9,1.39,1.28,2.19,1.62,4.09,.13,.7,.45,2.75,.23,5.5-.14,1.69-.34,3.96-1.53,6.5-.43,.93-.9,1.66-1.83,3.13-.51,.8-1.33,2.05-2.45,3.52-.68,.9-.51,.72-2.29,2.83-1.9,2.25-2.22,2.6-2.83,3.11-.31,.26-1.71,1.4-2.89,2.07-1.7,.97-2.67,1.53-3.69,2.06-.78,.41-1.4,.7-1.73,.86-.72,.34-.68,.44-.35-.18,.14-.25,.5-.73,.94-1.04,.54-.38,.95-.77,1.36-1.05,.83-.57,1.18-.84,2.43-1.95,.93-.83,1.42-1.14,2.81-2.54,1.65-1.68,1.89-1.79,3.78-4.24,1.03-1.33,1.72-2.27,2.45-3.29,.69-.97,1.39-1.96,1.99-3.44,.58-1.43,.77-2.62,.92-3.52,.14-.88,.28-1.75,.23-2.9-.01-.33,.05-1.54-.19-2.93-.29-1.66-.51-2.43-.57-2.69-.29-1.25-.62-2.01-1.07-2.93-.26-.53-.78-1.56-1.83-2.52-.65-.59-1.22-1.11-2.14-1.3-1.02-.21-1.86,.12-2.52,.38-1.09,.43-2.88,1.65-3.3,1.99-2.24,1.8-3.27,3.1-3.58,3.44-1.98,2.14-3.13,4.05-3.9,5.35-.68,1.14-2.53,4.31-3.52,8.18-.09,.36-.14,.58-.31,1.22-.68,2.61-1.34,4.5-1.68,5.5-2.53,7.32-2.21,6.84-2.75,7.95-1.25,2.55-2.56,4.3-3.52,5.58-1.51,2-2.57,3-3.59,3.59,2.95,.59,6.53,1.07,10.62,1.14,3.86,.07,7.28-.25,10.13-.68l3.74-.76c.41-.45,.76-.86,1.54-1.7,.57-.61,1.67-1.74,3.52-3.86,1.8-2.05,2.87-3.42,3.95-4.86,1.09-1.45,2.07-3,2.54-3.75,.53-.83,.97-1.51,1.75-2.93,1.26-2.29,1.34-2.62,1.86-3.91,.37-.91,.8-2.05,1.23-4.16,.34-1.66,.54-3.32,.7-5.62,.04-.49,.22-1.88,.25-4.45,.03-2.72-.05-3.44-.21-4.42-.21-1.29-.26-1.67-.64-3.32-.21-.89-.37-1.54-.52-2.32-.18-.85-.34-1.86-.22-3.59,.09-1.22,.26-2.01,.39-2.59,.19-.87,.29-1.25,.49-1.66,.73-1.43,1.25-2,1.63-2.36,.49-.46,.54-.57,.73-.81,.12-.15,.09-.32,.09-.45,.01-.23,.04-.32,0-.38-.05-.06-.17-.07-.46-.14-.18-.04-.68-.1-1.11-.19-2.32-.5-4.04-.23-4.78-.17-1.07,.1-1.5,.39-2.02,.65-.8,.39-.9,.83-2.08,2.37-.35,.46-1.13,1.55-1.59,1.53-.42-.02-.79-.15-1.03-.44-.21-.25-.48-.64-.67-1.02-.3-.6-.35-1.11-.36-1.36-.04-.71,.08-1.13,.21-1.47,.2-.54,.4-.96,1.36-2.03,1.08-1.2,1.69-1.73,3.38-2.37,1.11-.42,2.37-.73,4.51-.8,1.45-.05,2.6-.03,3.97,.07,.82,.06,1.99,.12,3.75,.41,1.88,.31,2.84,.62,3.7,.85,.72,.19,1.47,.44,1.89,.58,.71,.24,.94,.27,1.54,.47,.4,.14,.71,.24,.95,.3,1.02,.29,.9,.43,.61-.43-.06-.18-.17-.4-.3-.69Z"/>
  <path class="cls-2" d="M46.88,0C20.99,0,0,20.99,0,46.88s20.99,46.88,46.88,46.88,46.88-20.99,46.88-46.88S72.78,0,46.88,0Zm-10.04,80.24c-2.85,.44-6.27,.75-10.13,.68-4.09-.07-7.67-.56-10.62-1.14,1.03-.59,2.09-1.59,3.59-3.59,.96-1.27,2.27-3.03,3.52-5.58,.54-1.11,.22-.63,2.75-7.95,.35-1,1-2.9,1.68-5.5,.17-.65,.21-.86,.31-1.22,.98-3.86,2.84-7.04,3.52-8.18,.77-1.3,1.92-3.21,3.9-5.35,.31-.34,1.34-1.64,3.58-3.44,.42-.34,2.2-1.56,3.3-1.99,.66-.26,1.51-.59,2.52-.38,.92,.19,1.49,.71,2.14,1.3,1.06,.96,1.57,1.99,1.83,2.52,.45,.93,.78,1.68,1.07,2.93,.06,.27,.29,1.03,.57,2.69,.24,1.39,.18,2.61,.19,2.93,.05,1.15-.09,2.02-.23,2.9-.15,.9-.34,2.08-.92,3.52-.59,1.48-1.3,2.47-1.99,3.44-.73,1.02-1.41,1.95-2.45,3.29-1.89,2.45-2.13,2.56-3.78,4.24-1.39,1.41-1.88,1.71-2.81,2.54-1.24,1.11-1.6,1.38-2.43,1.95-.41,.28-.82,.67-1.36,1.05-.44,.32-.81,.79-.94,1.04-.33,.62-.37,.52,.35,.18,.33-.16,.95-.45,1.73-.86,1.01-.53,1.99-1.09,3.69-2.06,1.18-.67,2.57-1.81,2.89-2.07,.61-.51,.93-.86,2.83-3.11,1.78-2.1,1.61-1.93,2.29-2.83,1.11-1.47,1.94-2.72,2.45-3.52,.93-1.47,1.4-2.21,1.83-3.13,1.19-2.54,1.39-4.81,1.53-6.5,.22-2.75-.1-4.8-.23-5.5-.34-1.9-.73-2.71-1.62-4.09-.65-1-.9-1.29-2.18-2.75-.95-1.09-1.88-2.07-2.33-2.79-.74-1.19-1.42-2.51-1.98-4.21-.83-2.55,.12-3.19-.72-5.27-.39-.98-.89-1.68-2.25-3.26-1.57-1.82-2.16-2.26-3.63-3.26-.95-.65-1.84-1.13-3.17-2.25-.3-.25-.84-.8-1.17-1.25-.23-.31-.36-.57-.27-.69,.06-.07,.26-.11,.54-.13,.44-.03,1.08,0,1.7,.02,.98,.04,1.44-.01,2.41,.03,1.65,.07,1.76,.5,3.02,.65,1.05,.13,2.11,.04,2.6,0,1.34-.12,1.6-.25,2.79-.69,.97-.36,1.58-.42,3.17-.59,1.44-.15,3.64-.27,6.07-.02,1.56,.16,2.36,.27,4.34,.68,.82,.17,1.7,.4,2.33,.57,1.42,.39,2.32,.66,3.65,1.19,1.79,.71,3.1,1.45,3.38,1.58,0,0,.37,.23,.67,.45,.31,.23,.66,.79,.76,1.02,.13,.28,.24,.51,.3,.69,.29,.86,.41,.73-.61,.43-.24-.07-.55-.17-.95-.3-.6-.21-.83-.23-1.54-.47-.42-.14-1.17-.39-1.89-.58-.86-.23-1.82-.54-3.7-.85-1.76-.29-2.92-.35-3.75-.41-1.37-.1-2.53-.12-3.97-.07-2.14,.08-3.4,.38-4.51,.8-1.69,.64-2.3,1.17-3.38,2.37-.96,1.06-1.15,1.48-1.36,2.03-.13,.34-.25,.76-.21,1.47,.01,.26,.06,.76,.36,1.36,.19,.38,.46,.77,.67,1.02,.24,.29,.62,.42,1.03,.44,.45,.02,1.23-1.07,1.59-1.53,1.18-1.54,1.29-1.98,2.08-2.37,.52-.25,.95-.55,2.02-.65,.75-.07,2.46-.34,4.78,.17,.42,.09,.92,.15,1.11,.19,.29,.06,.41,.08,.46,.14,.05,.06,.02,.16,0,.38,0,.13,.03,.3-.09,.45-.19,.24-.24,.35-.73,.81-.39,.36-.9,.93-1.63,2.36-.21,.41-.3,.79-.49,1.66-.13,.58-.31,1.37-.39,2.59-.12,1.73,.04,2.74,.22,3.59,.16,.77,.32,1.42,.52,2.32,.38,1.65,.43,2.03,.64,3.32,.16,.98,.24,1.7,.21,4.42-.03,2.58-.22,3.97-.25,4.45-.17,2.3-.37,3.97-.7,5.62-.43,2.11-.87,3.24-1.23,4.16-.51,1.28-.6,1.62-1.86,3.91-.78,1.41-1.22,2.1-1.75,2.93-.47,.75-1.45,2.29-2.54,3.75-1.08,1.43-2.15,2.8-3.95,4.86-1.86,2.12-2.95,3.24-3.52,3.86-.78,.84-1.13,1.25-1.54,1.7l-3.74,.76ZM81.42,23.78c-1.41,.1-2.55,.17-4.73,.32-1.08,.07-.72,.05-6.13,.52-2,.17-2.76,.25-3.67,.8-1.29,.8-1.91,1.99-2.18,2.52-.85,1.7-.86,3.27-.8,4.53,.38,7.99,.46,9.41,.57,10.44,.23,2.06,.44,3.34,.8,6.7,.29,2.67,.72,6.65-.86,11.06-.98,2.75-2.26,4.79-4.03,7.15-.96,1.28-2.64,3.15-5.25,5.35-1.86,1.57-3.35,2.43-5.68,3.78,0,0-1.86,1.21-4.64,2.06-1.32,.4-2.16,.54-2.64,.52-.92-.04-.86,.29,.72-1.53,1.08-1.25,1.72-1.86,2.41-2.55,.56-.57,1.25-1.41,2.78-3.25,1.76-2.12,3-3.7,3.86-5.02,1.54-2.36,2.47-3.86,3.48-5.77,1.58-3,1.87-4.52,2.06-5.2,.29-1.01,.64-2.32,.92-4.82,.51-4.54,.54-6.24,.52-7.62-.02-1.06,.05-3.4-.63-6.31-.55-2.34-.74-2.99-.92-4.36-.23-1.81,.03-3.84,.52-5.76,.36-1.43,1.15-2.44,1.8-3.05,.57-.54,.68-.89,.84-1.4,.18-.56-.09-1.19-.09-1.19-.69-.23-2.2-.58-3.21-.69-2.06-.23-4.03-.25-5.27,.27-.61,.26-1.72,.8-2.55,1.83-.32,.4-.69,1.05-.95,1.49-.4,.7-.59,.75-.83,.8-.42,.08-.95-.44-1.15-.97-.15-.4-.2-1.21,.17-2.09,.31-.73,1.1-2.16,3.1-3.3,.49-.28,1.2-.6,2.58-.86,2.6-.49,4.78-.41,6.19-.29,3.21,.29,5.9,.76,7.92,1.34,.97,.27,1.94,.67,3.02,.95,.78,.2,1.85,.45,4.87,.75,2.26,.22,4.09,.5,6.31,.8,.2,.03,1.72,.1,2.52,.81,.14,.12,.49,.68,.41,.89-.12,.35-1.39,.29-2.16,.34Z"/>
</svg>